<?xml version="1.0" encoding="utf-8"?>
<!-- Generator: Adobe Illustrator 21.0.2, SVG Export Plug-In . SVG Version: 6.00 Build 0)  -->
<svg version="1.1" id="Layer_1" xmlns="http://www.w3.org/2000/svg" xmlns:xlink="http://www.w3.org/1999/xlink" x="0px" y="0px"
	 viewBox="0 0 303.3 100.7" style="enable-background:new 0 0 303.3 100.7;" xml:space="preserve">
<style type="text/css">
	.st0{fill:#FBAF33;}
	.st1{fill:#231F20;}
</style>
<g>
	<g>
		<path class="st0" d="M54.9,24.8h31.4v10.7H54.9V24.8z M179.2,35.5h-42.7v10.7h42.7V35.5z M136.5,24.8h42.7V14.1h-42.7V24.8z
			 M252.2,3.4h-36.1l-0.4,5.4l0.3,5.4h43.7L252.2,3.4z M270.5,30.2l-3.9-5.4h-51.9l-0.3,5.4l0.3,5.4h51.9L270.5,30.2z M252.2,57
			l7.5-10.7H216l-0.3,5.4L216,57H252.2z"/>
		<path class="st1" d="M216,57h-37.2V3.4H216v10.7h-25.3v10.7h24v10.7h-24v10.7H216V57z M126.5,3.4l-15.1,19.5L96.3,3.4H85.9V57
			h11.9V22.8l13.6,17.6L125,22.8V57h11.9V3.4H126.5z M270.1,30.2l-18,26.8h14L277,39.3L288,57h14l-17.9-26.8L302,3.4h-13.9l-11,17.8
			l-11-17.8h-13.9L270.1,30.2z M41.6,24.8c-0.2-5.2-3.4-12.2-12.7-12.2S16,20.1,15.5,24.8H41.6z M55.2,30c0,3.3-0.3,5.5-0.3,5.5
			H15.5c0.5,6.1,4.9,12.1,13.4,12.1c3.9,0,7.2-1.5,9.6-4.6h13.9c-2,6.2-10.7,15.4-23.5,15.4C13,58.4,1.7,47.6,1.7,30.5
			C1.7,12.8,13.7,2,29.2,2C40.7,2,55.2,9.1,55.2,30z"/>
	</g>
	<g>
		<path d="M40.5,93.8c-0.5,0.4-1,0.6-1.3,0.7s-0.7,0.2-1,0.2c-0.5,0-0.9-0.1-1.2-0.3c-0.3-0.2-0.5-0.5-0.6-1c-1,0.8-2.1,1.2-3.3,1.2
			c-0.9,0-1.6-0.3-2.2-0.9s-0.8-1.3-0.8-2.1c0-1,0.4-1.9,1.3-2.6c0.5-0.4,1.5-0.8,2.8-1.3l2.1-0.8v-0.7c0-1.4-0.7-2.1-2.2-2.1
			c-0.7,0-1.3,0.2-2,0.5c-0.7,0.3-1.3,0.8-1.9,1.5v-2.6c0.9-1.1,2.3-1.7,4-1.7c1.3,0,2.4,0.3,3.1,1c0.9,0.7,1.3,1.7,1.3,3.1v6.3
			c0,0.4,0.2,0.7,0.5,0.7s0.7-0.2,1.3-0.7v1.6H40.5z M36.3,92v-3.6c-1.3,0.4-2.2,0.8-2.7,1.1c-0.8,0.5-1.1,1-1.1,1.7
			c0,0.5,0.2,0.9,0.5,1.2c0.3,0.3,0.8,0.5,1.3,0.5c0.4,0,0.7-0.1,1.1-0.2C35.6,92.6,36,92.4,36.3,92z"/>
		<path d="M52,91.3c0,1-0.4,1.7-1.2,2.3c-0.8,0.6-1.8,0.9-3,0.9h-5.3V82.3h4.4c1.2,0,2.2,0.3,3,0.8s1.2,1.2,1.2,2.1
			c0,0.7-0.2,1.3-0.6,1.7c-0.4,0.5-0.9,0.8-1.6,0.9c1.1,0.2,1.9,0.7,2.4,1.3C51.8,89.7,52,90.4,52,91.3z M48.6,85.8
			c0-0.4-0.2-0.8-0.5-1c-0.3-0.3-0.7-0.4-1.3-0.4h-1.9v3h1.9c0.5,0,0.9-0.1,1.2-0.4C48.4,86.7,48.6,86.3,48.6,85.8z M49.6,90.7
			c0-0.6-0.2-0.9-0.6-1.2c-0.4-0.2-1-0.4-1.7-0.4H45v3.3h2.3C48.8,92.4,49.6,91.9,49.6,90.7z"/>
		<path d="M63.2,84.5h-3.8v10H57v-10h-3.8v-2.2h10V84.5z"/>
		<path d="M77.5,88.3c0,1.9-0.6,3.5-1.8,4.7c-1.2,1.2-2.8,1.8-4.8,1.8c-1.9,0-3.4-0.6-4.6-1.8c-1.2-1.2-1.8-2.7-1.8-4.6
			c0-1.8,0.6-3.2,1.8-4.4c1.2-1.2,2.8-1.8,4.6-1.8c1.9,0,3.5,0.6,4.7,1.8C76.9,85,77.5,86.5,77.5,88.3z M75,88.3
			c0-1.2-0.4-2.2-1.2-2.9c-0.8-0.8-1.8-1.2-3-1.2c-1.1,0-2.1,0.4-2.8,1.1c-0.7,0.8-1.1,1.7-1.1,2.9c0,1.3,0.4,2.3,1.1,3.1
			c0.7,0.8,1.7,1.2,2.9,1.2c1.3,0,2.3-0.4,3-1.1S75,89.6,75,88.3z"/>
		<path d="M88.5,91.1c0,1.1-0.4,2-1.3,2.6s-2.1,1-3.8,1c-0.8,0-1.5-0.1-2.2-0.2c-0.6-0.1-1.2-0.4-1.8-0.7v-2.2c1.3,0.7,2.6,1,3.8,1
			c0.8,0,1.5-0.1,2-0.4S86,91.5,86,91s-0.2-1-0.6-1.3s-0.9-0.5-1.7-0.5h-1.8v-1.8h1.4c0.6,0,1.1-0.1,1.5-0.4s0.6-0.7,0.6-1.2
			s-0.2-0.9-0.6-1.2c-0.4-0.3-1-0.4-1.9-0.4c-0.6,0-1.1,0.1-1.7,0.3c-0.3,0.1-0.9,0.4-1.6,0.7V83c0.5-0.3,1.1-0.5,1.7-0.7
			c0.7-0.2,1.3-0.3,1.9-0.3c1.3,0,2.3,0.3,3.1,0.8c0.9,0.6,1.4,1.4,1.4,2.5c0,0.7-0.2,1.3-0.6,1.7c-0.4,0.4-1,0.8-1.8,1
			c0.9,0.2,1.6,0.5,2.1,1C88.2,89.6,88.5,90.3,88.5,91.1z"/>
		<path d="M100.9,93.8c-0.5,0.4-1,0.6-1.3,0.7s-0.7,0.2-1,0.2c-0.5,0-0.9-0.1-1.2-0.3c-0.3-0.2-0.5-0.5-0.6-1
			c-1,0.8-2.1,1.2-3.3,1.2c-0.9,0-1.6-0.3-2.2-0.9s-0.8-1.3-0.8-2.1c0-1,0.4-1.9,1.3-2.6c0.5-0.4,1.5-0.8,2.8-1.3l2.1-0.8v-0.7
			c0-1.4-0.7-2.1-2.2-2.1c-0.7,0-1.3,0.2-2,0.5s-1.3,0.8-1.9,1.5v-2.6c0.9-1.1,2.3-1.7,4-1.7c1.3,0,2.4,0.3,3.1,1
			c0.9,0.7,1.3,1.7,1.3,3.1v6.3c0,0.4,0.2,0.7,0.5,0.7s0.7-0.2,1.3-0.7L100.9,93.8L100.9,93.8z M96.8,92v-3.6
			c-1.3,0.4-2.2,0.8-2.7,1.1c-0.8,0.5-1.1,1-1.1,1.7c0,0.5,0.2,0.9,0.5,1.2c0.3,0.3,0.8,0.5,1.3,0.5c0.4,0,0.7-0.1,1.1-0.2
			C96.1,92.6,96.4,92.4,96.8,92z"/>
		<path d="M113.2,94.5h-2.4v-10h-5.4v10H103V82.3h10.2C113.2,82.3,113.2,94.5,113.2,94.5z"/>
		<path d="M126,94.5h-2.4v-5.4c-0.7,0.2-1.2,0.3-1.7,0.4s-1.1,0.1-1.7,0.1c-1.2,0-2.2-0.4-3-1.1s-1.2-1.7-1.2-2.8v-3.4h2.4V85
			c0,1.6,0.8,2.4,2.5,2.4c0.5,0,1,0,1.4-0.1s0.8-0.2,1.3-0.4v-4.7h2.4L126,94.5L126,94.5z"/>
		<path d="M139,93.8c-0.5,0.4-1,0.6-1.3,0.7s-0.7,0.2-1,0.2c-0.5,0-0.9-0.1-1.2-0.3c-0.3-0.2-0.5-0.5-0.6-1c-1,0.8-2.1,1.2-3.3,1.2
			c-0.9,0-1.6-0.3-2.2-0.9c-0.6-0.6-0.8-1.3-0.8-2.1c0-1,0.4-1.9,1.3-2.6c0.5-0.4,1.5-0.8,2.8-1.3l2.1-0.8v-0.7
			c0-1.4-0.7-2.1-2.2-2.1c-0.7,0-1.3,0.2-2,0.5s-1.3,0.8-1.9,1.5v-2.6c0.9-1.1,2.3-1.7,4-1.7c1.3,0,2.4,0.3,3.1,1
			c0.9,0.7,1.3,1.7,1.3,3.1v6.3c0,0.4,0.2,0.7,0.5,0.7s0.7-0.2,1.3-0.7L139,93.8L139,93.8z M134.9,92v-3.6c-1.3,0.4-2.2,0.8-2.7,1.1
			c-0.8,0.5-1.1,1-1.1,1.7c0,0.5,0.2,0.9,0.5,1.2c0.3,0.3,0.8,0.5,1.3,0.5c0.4,0,0.7-0.1,1.1-0.2C134.2,92.6,134.5,92.4,134.9,92z"
			/>
		<path d="M150.3,94c-0.4,0.2-0.9,0.4-1.6,0.5c-0.7,0.1-1.4,0.2-2,0.2c-1.8,0-3.3-0.6-4.4-1.7c-1.2-1.1-1.7-2.6-1.7-4.4
			c0-2,0.5-3.6,1.6-4.8c1.1-1.2,2.5-1.8,4.4-1.8c0.7,0,1.3,0.1,1.9,0.2c0.4,0.1,1,0.3,1.7,0.6v2.6c-0.7-0.4-1.3-0.8-1.8-0.9
			c-0.5-0.2-1-0.3-1.6-0.3c-1.1,0-2,0.4-2.7,1.2c-0.7,0.8-1,1.8-1,3c0,1.3,0.4,2.2,1.1,3c0.7,0.7,1.8,1.1,3,1.1c0.9,0,2-0.3,3.2-0.8
			L150.3,94L150.3,94z"/>
		<path d="M161.4,84.5h-3.8v10h-2.4v-10h-3.8v-2.2h10V84.5z"/>
		<path d="M173.7,94.5h-2.4v-8.4l-6,8.4h-2.2V82.3h2.3v8.4l6-8.4h2.2L173.7,94.5L173.7,94.5z"/>
		<path d="M194,91.3c0,1-0.4,1.7-1.2,2.3c-0.8,0.6-1.8,0.9-3,0.9h-5.3V82.3h4.4c1.2,0,2.2,0.3,3,0.8s1.2,1.2,1.2,2.1
			c0,0.7-0.2,1.3-0.6,1.7c-0.4,0.5-0.9,0.8-1.6,0.9c1.1,0.2,1.9,0.7,2.4,1.3C193.8,89.7,194,90.4,194,91.3z M190.6,85.8
			c0-0.4-0.2-0.8-0.5-1c-0.3-0.3-0.7-0.4-1.3-0.4h-1.9v3h1.9c0.5,0,0.9-0.1,1.2-0.4C190.4,86.7,190.6,86.3,190.6,85.8z M191.5,90.7
			c0-0.6-0.2-0.9-0.6-1.2c-0.4-0.2-1-0.4-1.7-0.4h-2.3v3.3h2.3C190.8,92.4,191.5,91.9,191.5,90.7z"/>
		<path d="M209,88.3c0,1.9-0.6,3.5-1.8,4.7s-2.8,1.8-4.8,1.8c-1.9,0-3.4-0.6-4.6-1.8c-1.2-1.2-1.8-2.7-1.8-4.6
			c0-1.8,0.6-3.2,1.8-4.4c1.2-1.2,2.8-1.8,4.6-1.8c1.9,0,3.5,0.6,4.7,1.8C208.4,85,209,86.5,209,88.3z M206.5,88.3
			c0-1.2-0.4-2.2-1.2-2.9c-0.8-0.8-1.8-1.2-3-1.2c-1.1,0-2.1,0.4-2.8,1.1c-0.7,0.8-1.1,1.7-1.1,2.9c0,1.3,0.4,2.3,1.1,3.1
			c0.7,0.8,1.7,1.2,2.9,1.2c1.3,0,2.3-0.4,3-1.1C206.2,90.7,206.5,89.6,206.5,88.3z"/>
		<path d="M221.1,91.3c0,1-0.4,1.7-1.2,2.3c-0.8,0.6-1.8,0.9-3,0.9h-5.3V82.3h4.4c1.2,0,2.2,0.3,3,0.8s1.2,1.2,1.2,2.1
			c0,0.7-0.2,1.3-0.6,1.7c-0.4,0.5-0.9,0.8-1.6,0.9c1.1,0.2,1.9,0.7,2.4,1.3C220.9,89.7,221.1,90.4,221.1,91.3z M217.7,85.8
			c0-0.4-0.2-0.8-0.5-1c-0.3-0.3-0.7-0.4-1.3-0.4H214v3h1.9c0.5,0,0.9-0.1,1.2-0.4C217.5,86.7,217.7,86.3,217.7,85.8z M218.7,90.7
			c0-0.6-0.2-0.9-0.6-1.2c-0.4-0.2-1-0.4-1.7-0.4h-2.3v3.3h2.3C217.9,92.4,218.7,91.9,218.7,90.7z"/>
		<path d="M234.7,88.5c0,1.8-0.6,3.3-1.7,4.5c-1.2,1.2-2.6,1.7-4.4,1.7c-0.4,0-0.8,0-1.2-0.1s-0.8-0.2-1.3-0.4v6.5h-2.4V82.3h4.2
			c2.2,0,3.9,0.5,5.1,1.6C234.1,84.9,234.7,86.5,234.7,88.5z M232.2,88.5c0-1.3-0.3-2.3-1-2.9c-0.7-0.7-1.6-1-3-1H226v7.5
			c0.7,0.3,1.5,0.5,2.3,0.5c1.1,0,2-0.4,2.8-1.1C231.9,90.7,232.2,89.7,232.2,88.5z"/>
		<path d="M247.7,88.8h-8.6c0.4,2.4,1.8,3.6,4.1,3.6c0.7,0,1.4-0.1,2.1-0.4c0.7-0.2,1.4-0.6,2.2-1.1v2.3c-0.8,0.5-1.5,0.9-2.2,1.1
			s-1.6,0.3-2.6,0.3c-1.8,0-3.3-0.7-4.4-2c-1-1.2-1.5-2.7-1.5-4.5s0.5-3.3,1.6-4.5c1.1-1.1,2.4-1.7,4.1-1.7c1.7,0,2.9,0.6,3.9,1.7
			C247.2,84.9,247.7,86.6,247.7,88.8z M245.3,87.2c0-0.9-0.3-1.7-0.8-2.2s-1.2-0.8-2.1-0.8c-1.9,0-3,1-3.3,3H245.3z"/>
		<path d="M262,94.5h-2.4v-8.4l-3.5,4h-0.2l-3.5-4v8.4h-2.3V82.3h1.9l4,4.6l4-4.6h1.9v12.2H262z"/>
		<path d="M273.7,94.5h-2.4v-5.1h-1.1c-0.6,0-1.1,0.2-1.5,0.6c-0.3,0.3-0.7,0.8-1,1.6l-1.5,2.9h-2.5l1-2.1c0.3-0.5,0.5-1,0.8-1.6
			c0.5-1,1.1-1.6,1.6-2c-0.7-0.2-1.2-0.6-1.6-1.2c-0.4-0.5-0.6-1.2-0.6-2c0-1,0.4-1.8,1.2-2.4c0.8-0.6,1.9-1,3.2-1h4.3v12.3H273.7z
			 M271.3,87.6v-3.2h-1.6c-0.8,0-1.3,0.1-1.7,0.4c-0.4,0.3-0.5,0.7-0.5,1.2s0.2,0.9,0.6,1.2c0.4,0.3,1,0.4,1.8,0.4H271.3z"/>
	</g>
</g>
</svg>
